<?xml version="1.0" standalone="no"?>
<!DOCTYPE svg PUBLIC "-//W3C//DTD SVG 20010904//EN"
 "http://www.w3.org/TR/2001/REC-SVG-20010904/DTD/svg10.dtd">
<svg version="1.0" xmlns="http://www.w3.org/2000/svg"
 width="433.000000pt" height="546.000000pt" viewBox="0 0 433.000000 546.000000"
 preserveAspectRatio="xMidYMid meet">

<g transform="translate(0.000000,546.000000) scale(0.100000,-0.100000)"
fill="#000000" stroke="none">
<path d="M2410 4396 c0 -7 7 -31 16 -52 14 -34 16 -66 10 -234 -8 -236 -15
-315 -30 -336 -12 -15 -202 -44 -489 -75 -65 -7 -124 -17 -132 -23 -10 -8 -19
-82 -35 -276 -13 -146 -23 -266 -24 -267 -1 -1 -51 -5 -111 -9 -88 -5 -114
-10 -128 -25 -17 -18 -40 -19 -395 -19 l-377 0 -219 -40 c-120 -21 -220 -41
-222 -43 -3 -3 10 -225 29 -478 3 -37 10 -53 35 -75 31 -29 31 -30 39 -159 l8
-130 25 2 c14 1 187 7 385 13 l360 11 325 59 c179 32 359 64 400 70 42 7 84
20 95 30 39 34 136 90 156 90 11 0 70 -11 131 -25 61 -14 116 -25 122 -25 7 0
17 33 24 77 6 42 13 77 14 78 2 2 81 4 177 6 l175 4 -2 -165 c-1 -91 -7 -474
-14 -851 -6 -377 -9 -693 -6 -701 5 -13 56 -16 335 -22 180 -4 337 -9 349 -12
20 -5 21 -1 27 168 4 95 7 254 7 353 0 99 7 340 15 535 8 195 17 432 21 525 4
94 11 176 16 182 6 7 8 19 5 26 -4 11 -57 16 -244 21 -131 4 -238 8 -239 9 0
1 3 270 7 597 7 532 6 598 -8 619 -13 21 -15 49 -10 185 5 155 7 163 38 226
17 36 40 77 50 92 23 32 24 64 3 72 -9 3 -173 6 -365 6 -290 0 -349 -2 -349
-14z"/>
</g>
</svg>
