<?xml version="1.0" standalone="no"?>
<!DOCTYPE svg PUBLIC "-//W3C//DTD SVG 20010904//EN"
 "http://www.w3.org/TR/2001/REC-SVG-20010904/DTD/svg10.dtd">
<svg version="1.0" xmlns="http://www.w3.org/2000/svg"
 width="433.000000pt" height="546.000000pt" viewBox="0 0 433.000000 546.000000"
 preserveAspectRatio="xMidYMid meet">

<g transform="translate(0.000000,546.000000) scale(0.100000,-0.100000)"
fill="#000000" stroke="none">
<path d="M1435 3640 c-38 -4 -95 -22 -153 -48 -89 -40 -97 -42 -191 -42 l-98
0 -7 -162 c-3 -90 -9 -220 -12 -290 l-7 -128 -228 0 -229 0 0 -42 c-1 -24 -11
-275 -24 -558 -13 -283 -23 -516 -21 -518 1 -2 27 3 56 10 49 13 56 18 73 56
11 23 24 42 30 42 19 0 56 -30 56 -46 0 -17 -14 -18 171 11 l155 24 113 -39
c116 -41 143 -45 274 -34 l76 7 -6 27 c-3 20 3 42 22 74 15 25 31 48 36 52 5
3 59 14 120 24 62 11 114 22 117 25 3 3 -22 121 -56 263 -34 141 -63 266 -64
277 -3 17 9 22 102 42 58 13 116 26 128 29 l24 5 -8 304 -7 305 59 0 c36 0
196 -30 409 -75 l350 -76 458 -204 457 -203 -6 46 c-3 26 -25 211 -48 412 -42
363 -42 365 -66 372 -14 4 -317 21 -675 38 -638 30 -1214 39 -1380 20z"/>
</g>
</svg>
